<svg width="177" height="84" viewBox="0 0 177 84" fill="none" xmlns="http://www.w3.org/2000/svg">
<path d="M54.5674 50.5766L46.3574 52.2075C41.2819 53.0104 37.8276 53.3909 35.9945 53.3488C34.2068 53.2442 32.5726 53.0599 31.0919 52.7961C29.6651 52.5237 28.4955 52.1276 27.5831 51.6078C25.3461 50.412 24.0269 48.5452 23.6254 46.0074C23.5058 45.2515 23.7854 44.045 24.4641 42.3879C25.1428 40.7308 26.4268 38.7012 28.316 36.2992C30.2506 33.8346 32.6116 31.441 35.3989 29.1182C38.2317 26.7329 42.0747 24.4369 46.9282 22.23C51.7816 20.0232 57.161 18.342 63.0663 17.1864C65.1721 16.8532 67.4286 16.773 69.8358 16.9456C72.2885 17.0557 74.3263 17.3421 75.9492 17.8049C77.6261 18.2591 79.1738 19.1212 80.5924 20.3911C82.0024 21.6071 82.8568 23.16 83.1558 25.0498C83.395 26.5617 82.1934 28.4121 79.551 30.6013C76.6188 33.0576 72.48 34.7086 67.1344 35.5543C61.8429 36.3914 59.1374 36.432 59.0178 35.6761C58.9238 35.0822 60.3516 34.1368 63.3012 32.8399C66.3048 31.5346 69.287 30.0942 72.2479 28.5189C75.2088 26.9435 76.5824 25.4809 76.3689 24.131C76.2578 23.4291 75.0144 23.266 72.6386 23.6419C56.98 26.1191 44.1759 32.2958 34.2262 42.1718C32.3682 44.0708 31.5288 45.5873 31.7082 46.7212C31.9901 48.503 37.7465 48.5055 48.9775 46.7288C59.0917 45.2394 64.5673 47.1404 65.4045 52.432C66.0024 56.2116 64.0057 60.208 59.4143 64.4212C54.8229 68.6344 49.1941 72.2369 42.5277 75.2287C35.9153 78.2119 29.5626 80.2132 23.4697 81.2324C20.6079 81.6852 17.4646 81.4076 14.0397 80.3997C10.6148 79.3918 8.73154 77.808 8.38986 75.6482C8.27881 74.9463 8.81296 74.4743 9.99231 74.2324C16.2527 72.5225 20.2097 71.1216 21.8634 70.0298C22.2783 69.8535 22.6207 69.744 22.8907 69.7012C23.1607 69.6585 23.3042 69.6912 23.3213 69.7992C23.3555 70.0151 23.087 70.4174 22.516 71.0058C21.9733 71.4238 21.3723 71.8232 20.7131 72.2043C19.2866 72.9834 18.5862 73.454 18.6119 73.6159C18.6375 73.7779 19.1903 73.7735 20.2702 73.6027C21.3501 73.4318 24.0085 72.5685 28.2454 71.0126C32.4823 69.4568 36.9778 67.611 41.7318 65.4752C46.5398 63.3309 50.7026 60.9566 54.2202 58.3523C57.7378 55.748 59.3514 53.5279 59.0609 51.6921C58.873 50.5042 57.3752 50.1324 54.5674 50.5766ZM84.0356 62.9337L83.8635 57.6476C83.8379 57.4856 83.7711 57.4132 83.6631 57.4303C83.6091 57.4388 83.4912 57.5682 83.3094 57.8183C82.7271 58.6853 81.9856 59.7712 81.0851 61.0759C80.176 62.3266 78.5481 64.1062 76.2013 66.4146C73.9 68.6605 71.9394 69.9115 70.3195 70.1678C70.041 70.1565 69.7 70.0998 69.2964 69.9976C68.8473 69.9579 68.239 69.6114 67.4715 68.958C66.704 68.3045 66.2092 67.2759 65.9871 65.872C65.765 64.4681 66.5075 62.1645 68.2145 58.9611C69.8591 55.7122 71.9484 52.476 74.4825 49.2524C77.008 45.9748 79.9173 43.024 83.2104 40.3998C86.5575 37.7671 89.5809 36.2372 92.2806 35.8101C93.3151 35.7018 94.2403 36.3026 95.0564 37.6125C95.5109 36.9872 95.9541 36.6403 96.3861 36.572C96.8181 36.5036 97.3823 36.7465 98.0787 37.3004C98.4112 37.3032 98.7651 37.4409 99.1403 37.7136C99.507 37.9324 99.7331 38.3117 99.8185 38.8516C99.9039 39.3916 99.6199 40.0453 98.9665 40.8129C98.0547 42.3961 96.9838 44.1983 95.7538 46.2193C94.5238 48.2403 93.6489 49.707 93.1291 50.6195C92.6008 51.4779 92.0625 52.4486 91.5143 53.5316C90.5913 55.3933 90.1569 56.8457 90.2112 57.8887C95.3001 54.3717 103.065 47.3042 113.506 36.6862C114.052 36.9873 114.368 37.4078 114.453 37.9478C114.538 38.4877 114.395 38.9808 114.023 39.4271C113.651 39.8734 113.183 40.4178 112.621 41.0603C112.112 41.6942 111.064 42.9393 109.476 44.7956C107.888 46.6519 106.345 48.4456 104.848 50.1769C103.396 51.8455 101.704 53.7459 99.7724 55.878C97.886 57.9475 96.1771 59.7399 94.6457 61.2551C90.9579 64.8826 88.601 66.7775 87.5751 66.9398C86.5492 67.1021 85.769 66.8935 85.2345 66.3139C84.7001 65.7343 84.3004 64.6075 84.0356 62.9337ZM75.2362 60.8389C75.8842 60.7364 77.6457 59.1018 80.5208 55.9349C83.45 52.7595 86.1901 49.6141 88.7413 46.4985L92.649 41.8123C92.8309 41.5621 92.9175 41.4101 92.9089 41.3561C92.8919 41.2481 92.8023 41.2069 92.6403 41.2325C90.5885 41.5571 88.1037 43.1679 85.1858 46.0647C82.2595 48.9076 79.7906 51.8441 77.7794 54.8743C75.8137 57.8419 74.9034 59.7847 75.0486 60.7026C75.0657 60.8106 75.1282 60.856 75.2362 60.8389ZM111.723 56.561C113.505 56.2791 116.763 54.131 121.496 50.1167C126.284 46.0938 130.585 42.1479 134.401 38.2788L140.205 32.4623C140.751 32.7634 141.067 33.1839 141.152 33.7239C141.238 34.2638 141.049 34.8195 140.586 35.3909C140.123 35.9623 139.451 36.7881 138.57 37.8683C137.743 38.94 136.114 40.8858 133.682 43.7058C131.25 46.5257 128.973 49.0998 126.851 51.4281C121.291 57.5656 117.072 61.3325 114.193 62.7288C113.264 63.1525 112.286 63.4455 111.261 63.6078C110.235 63.7701 109.412 63.8173 108.792 63.7492C108.173 63.6812 107.469 63.4327 106.682 63.0038C105.09 62.038 103.97 59.5033 103.32 55.3997C103.141 54.2658 103.354 52.4611 103.958 49.9855C104.563 47.51 105.712 44.4502 107.404 40.8063C109.151 37.1538 111.249 33.4458 113.697 29.6823C116.2 25.9102 119.486 22.0143 123.554 17.9945C127.677 13.9662 132.194 10.5118 137.107 7.63142C137.874 7.23331 138.582 6.98301 139.23 6.8805C139.878 6.778 140.519 6.98101 141.153 7.48953C141.778 7.94406 142.246 8.45122 142.556 9.01099L143.089 9.75685C143.285 10.9987 141.8 14.0287 138.633 18.8469C135.383 23.844 131.482 28.7505 126.931 33.5662C122.425 38.3193 118.18 42.45 114.197 45.9582C110.955 48.9063 109.539 51.6763 109.949 54.268C110.214 55.9419 110.805 56.7062 111.723 56.561ZM116.36 38.6423C117.71 38.4287 121.261 34.4631 127.014 26.7454C132.821 19.0191 135.664 14.778 135.545 14.0221L135.438 13.8729L134.164 14.7387C131.646 17.0187 128.389 20.7441 124.392 25.9149C120.449 31.0771 117.783 35.0411 116.394 37.8067C116.221 38.1109 116.147 38.3439 116.173 38.5059C116.19 38.6139 116.252 38.6594 116.36 38.6423ZM149.609 30.9747C148.205 31.1968 146.06 33.0305 143.173 36.4759C140.278 39.8672 138.882 41.8869 138.985 42.5348C139.002 42.6428 139.091 42.684 139.253 42.6584C140.441 42.4704 142.581 40.776 145.672 37.575C148.817 34.3654 150.313 32.2747 150.159 31.3028C150.116 31.0328 149.933 30.9234 149.609 30.9747ZM136.458 59.6216C132.3 60.2793 129.82 58.0704 129.017 52.9949C128.513 49.8092 129.356 46.2167 131.546 42.2173C133.781 38.1555 136.609 34.6917 140.03 31.8259C143.442 28.9062 146.606 27.2157 149.522 26.7544C150.818 26.5494 152.087 26.8744 153.329 27.7295C154.626 28.576 155.351 29.4852 155.504 30.4571C155.786 32.239 154.838 34.4645 152.659 37.1338C150.471 39.7491 148.084 41.9807 145.499 43.8288C142.959 45.6143 141.23 46.5797 140.312 46.7249C139.448 46.8616 138.736 46.5591 138.176 45.8176C137.934 45.6897 137.624 45.6557 137.246 45.7155C136.868 45.7753 136.363 46.6025 135.729 48.197C135.088 49.7376 134.839 50.9668 134.984 51.8847C135.121 52.7487 135.531 53.2374 136.213 53.3508C140.316 52.7016 144.583 50.809 149.013 47.673C153.434 44.4829 159.405 39.1936 166.925 31.805C167.451 31.2791 168.239 30.4902 169.29 29.4384C170.396 28.378 171.043 27.7497 171.234 27.5536C171.78 27.8547 172.095 28.2752 172.181 28.8151C172.266 29.3551 172.1 29.8795 171.682 30.3883C169.41 33.5152 166.378 37.0941 162.588 41.1252C158.852 45.1477 154.443 49.1108 149.36 53.0144C144.268 56.8639 139.967 59.0664 136.458 59.6216Z" fill="#E85757"/>
</svg>
